<?xml version="1.0" encoding="UTF-8"?>
<svg width="68px" height="10px" viewBox="0 0 68 10" version="1.1" xmlns="http://www.w3.org/2000/svg" xmlns:xlink="http://www.w3.org/1999/xlink">
    <!-- Generator: Sketch 44 (41411) - http://www.bohemiancoding.com/sketch -->
    <title>dash</title>
    <desc>Created with Sketch.</desc>
    <defs></defs>
    <g id="Desktop" stroke="none" stroke-width="1" fill="none" fill-rule="evenodd" opacity="0.696218297">
        <g id="storages-picker-notify-id" transform="translate(-864.000000, -269.000000)" fill-rule="nonzero" fill="#FFFFFF">
            <g id="content">
                <g id="dash" transform="translate(864.000000, 269.000000)">
                    <path d="M67,4.5324 C67.2,4.6655 67.2,4 67.4,4 C67,4 67,4.6655 67,4.5324 Z" id="Shape"></path>
                    <polygon id="Shape" points="65.3333333 6.275 65.5 6 65 6.55"></polygon>
                    <path d="M63,6 C63,6.77 63.6,6 63.8,6.33 L63.8,6.55 L64,6 C63.7,6 63.2,6.33 63,6 Z" id="Shape"></path>
                    <path d="M63.1,4 C63.1,4.495 62.7,4.33 63.5,4.165 L63.5,4 L63.1,4 Z" id="Shape"></path>
                    <path d="M63.057735,4.14666667 C63.257735,4.14666667 62.857735,3.81666667 63.057735,4.14666667 L63.057735,4.14666667 Z" id="Shape"></path>
                    <path d="M62.0831106,2.55 L62.5,2.275 C62.5,2.09166667 62.2220737,2.09166667 62.3610369,2 C61.9441474,2.09166667 61.9441474,2.275 62.0831106,2.55 Z" id="Shape"></path>
                    <path d="M62,4.27338095 L62.2,4.10838095 C62.2,3.94338095 62.2,3.94338095 62,4.27338095 Z" id="Shape"></path>
                    <path d="M62.5,4 L62,4.3242011 C62,4.48630165 62,4.81050275 62.1666667,4.16210055 C62.1666667,4.48630165 62.3333333,4.16210055 62.5,4 Z" id="Shape"></path>
                    <path d="M63,4 C63.1476951,4.22 63.2953901,4.33 63,4.55 C63.5907803,4.55 63.7384754,4 63,4 Z" id="Shape"></path>
                    <path d="M63,6.18762372 L63.1666667,6.51762372 L63.5,6.18762372 C63.3333333,6.35262372 63,5.69262372 63,6.18762372 Z" id="Shape"></path>
                    <path d="M61,2 L61,2.55 L61.4,2.36666667 C61.2,2.36666667 61,2.18333333 61,2 Z" id="Shape"></path>
                    <path d="M61.5,4 L61,4.33 C61.5,4.495 61.5,4.33 61.5,4 Z" id="Shape"></path>
                    <polygon id="Shape" points="62.2 4.55 63 4 62 4.55"></polygon>
                    <polygon id="Shape" points="60.1666667 2.44 60.5 2 60 2.55"></polygon>
                    <path d="M60.8,2.55 C61,2.36666667 60.6,2.09166667 61,2 C60.6,2 60.4,2.275 60,2.45833333 C60.2,2.275 60.6,2.36666667 60.8,2.55 Z" id="Shape"></path>
                    <path d="M59,2.495 C59.1666667,2.33 59.3333333,2.165 59.5,2 C59.3333333,2.165 59.1666667,2.33 59,2.495 Z" id="Shape"></path>
                    <path d="M60.2,2.55 C60.2,2.44 60.2,2.22 60,2 L60.2,2.55 C60,2.55 60,2.55 60.2,2.55 Z" id="Shape"></path>
                    <path d="M60.4,4.165 L60.4,4.165 C60.2,4.165 60,4 60,4 C60,4.165 60.2,4.165 60.4,4.165 Z" id="Shape"></path>
                    <path d="M60,4 L60,4 C60,4.165 60,4.165 60,4 Z" id="Shape"></path>
                    <path d="M61.5,5 C61.2267435,5.5 60.8168587,6 61.0901152,7 C61.3633717,6.25 61.2267435,5.75 61.5,5 Z" id="Shape"></path>
                    <path d="M60,4.4125 L60.3333333,4.55 C60.3333333,4.4125 60.3333333,4.1375 60.5,4 L60,4.4125 Z" id="Shape"></path>
                    <polygon id="Shape" points="60 4.33 60.2 4.165 60 4"></polygon>
                    <path d="M59.7759908,4 C59.5819931,4.275 59.1939977,4.275 59,4.275 C59.1939977,4.4125 59.5819931,4.55 59.7759908,4.55 C59.9699885,4.275 60.1639861,4 59.7759908,4 Z" id="Shape"></path>
                    <path d="M60,4 L60,4 C60,4 60,4.165 60,4 Z" id="Shape"></path>
                    <path d="M58,4 C58,4 58,4.165 58,4 L58,4 L58,4 Z" id="Shape"></path>
                    <path d="M60,4.165 C60.1666667,4.33 60.3333333,4.165 60.5,4 C60.3333333,4.165 60.1666667,4.165 60,4.165 C60,4.165 60,4.33 60,4.165 Z" id="Shape"></path>
                    <path d="M59,2.04388774 C59,2.20888774 59.2,2.37388774 59.4,2.53888774 C59.2,2.20888774 59.2,1.87888774 59,2.04388774 Z" id="Shape"></path>
                    <path d="M60,4.12375 L60,4.12375 C60,3.95875 60,3.95875 60,4.12375 Z" id="Shape"></path>
                    <path d="M60.4,4 C60.2,4.165 60.2,4.33 60,4.33 C60.2,4.33 60.2,4.165 60.4,4.165 L60.4,4 Z" id="Shape"></path>
                    <path d="M57.1887135,8 C57.2830702,7.38461538 57.5661405,6.92307692 57.754854,7.53846154 C58.0379242,7.07692308 58.0379242,5.07692308 57.9435675,4 C57.9435675,4.30769231 57.9435675,4.46153846 57.6604972,4.76923077 C57.754854,5.07692308 58.132281,5.69230769 57.8492107,6.15384615 C57.4717837,6.46153846 57.5661405,5.84615385 57.4717837,5.53846154 C57.5661405,6.30769231 57,6.61538462 57,7.69230769 L57.2830702,7.38461538 C57.1887135,7.53846154 57.0943567,7.84615385 57.1887135,8 Z" id="Shape"></path>
                    <path d="M58.8333333,2.55 L59,2.55 C58.8333333,2.45833333 58.6666667,2.36666667 58.5,2 C58.1666667,2.18333333 58.1666667,2.275 58,2.36666667 L58.8333333,2.55 L58.8333333,2.55 Z" id="Shape"></path>
                    <path d="M58.625,4.46153846 C58.5,5.07692308 58.125,5.38461538 58.25,6 C58.625,6 58.625,5.53846154 58.875,5.23076923 C58.25,5.38461538 59,4.92307692 58.625,4.46153846 L59,4.46153846 C58.875,4.30769231 58.75,4.30769231 58.75,4.15384615 L58.75,4.15384615 L58.75,4.15384615 L58.75,4.15384615 L58.75,4.30769231 L58.75,4.30769231 C58.75,4.30769231 58.625,4.30769231 58.625,4.46153846 C58.5,4.30769231 58.625,4.30769231 58.625,4.15384615 L58.625,4 L58.625,4 L58,4.30769231 C58.25,4.46153846 58.375,4.46153846 58.625,4.46153846 Z" id="Shape"></path>
                    <path d="M60.15,6.165 L60.15,6 C59.95,6 59.95,6.165 60.15,6.165 Z" id="Shape"></path>
                    <path d="M60.2059412,6.83333333 C60.2059412,6.66666667 60.4118824,6.5 60.6178236,6.5 C60.8237648,6.66666667 60.6178236,6.83333333 60.6178236,7 C60.8237648,6.83333333 61.2356472,6.5 60.8237648,6.16666667 L60.8237648,6.33333333 C60.2059412,6 60,5.16666667 60,5 C60,5.66666667 60,6.16666667 60.2059412,6.83333333 Z" id="Shape"></path>
                    <path d="M61,5 L60,5.18333333 L60.5,5.55 L60.5,5.36666667 C61,5.36666667 60.75,5.18333333 61,5 Z" id="Shape"></path>
                    <polygon id="Shape" points="58.3333333 3.42857143 58.5 2 58 4"></polygon>
                    <polygon id="Shape" points="57.2 2.55 57.4 2 57 2.275"></polygon>
                    <path d="M28.2,8 L28,8.165 C28,8.165 28.2,8 28.2,8 Z" id="Shape"></path>
                    <path d="M29,7.33 L29,7 L29,7.33 Z" id="Shape"></path>
                    <path d="M44.5,2 C44.1666667,0.840610785 44,-0.898473038 44,0.550763481 L44,1.7101527 C44.1666667,1.7101527 44.3333333,1.7101527 44.5,2 Z" id="Shape"></path>
                    <path d="M36,4.4125 L36,4.55 C36,4.4125 36.2,4.1375 36.2,4 C36.2,4.1375 36,4.275 36,4.4125 Z" id="Shape"></path>
                    <path d="M35.4,6.495 L35,6 C35.2,6.165 35.2,6.33 35.4,6.495 Z" id="Shape"></path>
                    <path d="M23.2,9 L23,9.51641622 C23.4,9.64552027 23.2,9.38731216 23.2,9 Z" id="Shape"></path>
                    <path d="M51.5,2.40453626 C51.3333333,2.13484542 51.1666667,2 51,2 C51.1666667,2.26969084 51.3333333,2.80907252 51.5,2.40453626 Z" id="Shape"></path>
                    <path d="M28.2,2 C28,2 28,2.165 28,2.33 C28.2,2.33 28.2,2.165 28.2,2 Z" id="Shape"></path>
                    <path d="M51,2.26143571 C51,2.26143571 51,2.42643571 51.2,2.42643571 C51.4,2.26143571 51.6,2.26143571 52,2.26143571 C51.8,2.09643571 51.4,1.76643571 51,2.26143571 Z" id="Shape"></path>
                    <path d="M2,6.165 C2,6.165 2.2,6.165 2.4,6 C2.4,6 2.2,6 2,6.165 Z" id="Shape"></path>
                    <path d="M55,2 L55,2 L55,2 Z" id="Shape"></path>
                    <path d="M55.2,5 C55.2,5 55,5.165 55,5.33 C55,5.165 55.2,5 55.2,5 Z" id="Shape"></path>
                    <path d="M50,6 L50,6 C50,6.165 50,6.165 50,6 Z" id="Shape"></path>
                    <path d="M55.2,2.23334524 C55.2,2.06834524 55,2.06834524 55,2.06834524 C55,1.90334524 55,2.06834524 55.2,2.23334524 Z" id="Shape"></path>
                    <path d="M55,2.12375 L55,2.12375 C55.2,1.95875 55.2,1.95875 55,2.12375 Z" id="Shape"></path>
                    <path d="M55,2 C55.2,2 55.2,2 55.4,2.165 L55.4,2 L55,2 Z" id="Shape"></path>
                    <path d="M16.0888889,7 L16.0888889,7 C15.8888889,7.33 16.0888889,7.165 16.0888889,7 Z" id="Shape"></path>
                    <path d="M41,7.07333333 C41,7.07333333 41,6.90833333 41,7.07333333 L41,7.07333333 L41,7.07333333 Z" id="Shape"></path>
                    <path d="M41,8 C41.5,7.375 41.75,7.375 42,7.625 L41.75,6 L41,8 Z" id="Shape"></path>
                    <path d="M26.715138,7.56756757 L27.014038,8.10810811 C26.715138,9.05405405 26.4162381,8.64864865 26.715138,9.45945946 C26.715138,7.56756757 27.8111046,9.18918919 27.7114712,7.43243243 L27.9107379,7.83783784 C27.8111046,7.83783784 27.8111046,7.97297297 27.8111046,7.97297297 C28.2096378,8.78378378 28.0103712,6.62162162 28.5085378,6.89189189 C28.7078044,7.02702703 28.8074377,7.2972973 28.7078044,7.56756757 L29.0067044,7.16216216 C29.1063377,7.16216216 29.1063377,7.56756757 29.0067044,7.43243243 L29.504871,7.2972973 L29.504871,7.2972973 C29.6045043,7.02702703 29.7041376,6.48648649 29.8037709,6.35135135 C29.9034042,6.62162162 29.7041376,6.48648649 29.8037709,6.75675676 L30.1026709,6.35135135 C30.2023042,6.75675676 30.0030376,7.2972973 29.8037709,7.2972973 C30.1026709,9.05405405 30.0030376,6.75675676 30.7004708,7.83783784 L30.4015708,8.10810811 C30.6008375,9.18918919 30.8001041,8.78378378 31.0990041,9.45945946 C30.9993707,9.18918919 30.4015708,7.83783784 30.8001041,7.43243243 C30.8997374,7.56756757 30.9993707,7.56756757 31.1986374,7.2972973 C31.1986374,7.97297297 31.397904,7.83783784 31.5971706,7.7027027 L31.5971706,8.51351351 C31.7964373,7.83783784 31.7964373,7.43243243 31.8960706,7.02702703 C32.1949706,7.16216216 32.1949706,7.83783784 32.2946039,8.37837838 C32.6931371,8.51351351 31.9957039,7.2972973 32.4938705,7.16216216 C32.7927705,7.43243243 33.0916704,7.16216216 33.4902037,6.62162162 C33.6894703,6.89189189 33.4902037,7.16216216 33.4902037,7.43243243 L33.6894703,6.62162162 C33.7891036,6.62162162 33.6894703,6.89189189 33.6894703,6.89189189 C33.888737,6.62162162 33.6894703,6.08108108 33.9883703,5.81081081 C34.0880036,4.86486486 34.5861702,7.16216216 34.8850702,6.08108108 C34.9847035,6.35135135 34.8850702,6.62162162 34.8850702,6.89189189 C35.3832367,6.21621622 35.2836034,6.35135135 35.6821367,5.40540541 L35.9810367,5.94594595 C35.78177,5.27027027 36.08067,4.59459459 36.3795699,3.91891892 C36.2799366,3.64864865 36.1803033,3.37837838 36.1803033,3.24324324 L36.5788366,2.83783784 C36.6784699,2.97297297 36.5788366,3.24324324 36.4792032,3.64864865 C36.4792032,3.51351351 36.5788366,3.51351351 36.5788366,3.37837838 C36.7781032,3.64864865 36.6784699,4.18918919 36.5788366,4.72972973 C36.4792032,4.59459459 36.4792032,4.32432432 36.3795699,4.18918919 C36.2799366,4.72972973 36.1803033,5.27027027 36.1803033,5.81081081 C36.1803033,5.67567568 36.2799366,5.67567568 36.2799366,5.54054054 L36.2799366,5.94594595 C36.2799366,6.08108108 36.3795699,5.81081081 36.3795699,5.67567568 L36.6784699,6.62162162 L36.6784699,6.21621622 L37.2762698,6.89189189 C37.6748031,5.94594595 38.0733363,4.45945946 38.7707696,4.05405405 C38.5715029,4.72972973 38.6711362,5.27027027 38.6711362,6.08108108 C38.4718696,5.13513514 38.1729697,6.48648649 37.7744364,6.21621622 C37.973703,6.35135135 37.8740697,6.75675676 37.8740697,6.89189189 L38.4718696,6.08108108 C38.4718696,6.75675676 38.5715029,6.62162162 38.7707696,6.89189189 C38.6711362,5.54054054 39.2689362,5.94594595 39.4682028,5.54054054 C39.4682028,5.94594595 39.3685695,6.48648649 39.0696695,6.35135135 C39.3685695,7.43243243 39.5678361,4.72972973 39.8667361,5.67567568 C39.7671027,5.67567568 39.7671027,5.67567568 39.7671027,5.81081081 C39.9663694,5.40540541 40.3649027,5.81081081 40.2652693,6.08108108 L40.165636,6.08108108 C40.6638026,6.21621622 41.6601358,6.21621622 41.7597691,5 C41.7597691,5.13513514 41.6601358,6.35135135 41.6601358,6.62162162 L42.656469,2.83783784 C42.5568357,3.78378378 42.7561023,6.21621622 42.357569,6.75675676 C42.4572023,6.89189189 42.656469,7.02702703 42.8557356,6.75675676 C42.656469,6.62162162 42.656469,5.40540541 42.7561023,5.27027027 C43.0550023,6.35135135 42.9553689,5.81081081 43.2542689,6.89189189 C43.1546356,6.62162162 43.3539022,5.13513514 43.5531688,5.13513514 C43.5531688,5.40540541 43.5531688,6.62162162 43.4535355,6.75675676 L43.9517021,5.27027027 C43.8520688,5.54054054 43.8520688,6.62162162 43.9517021,7.02702703 C43.9517021,6.75675676 44.3502354,7.02702703 44.4498687,6.89189189 L44.2506021,6.62162162 C44.7487687,6.89189189 44.848402,4.45945946 45.3465686,4.59459459 C45.2469353,4.86486486 45.1473019,6.48648649 45.3465686,6.75675676 C45.5458352,5.94594595 46.0440018,3.10810811 46.5421684,2.43243243 L46.6418017,2.83783784 L47.040335,2.2972973 C46.741435,3.51351351 46.0440018,5.81081081 45.6454685,6.75675676 C45.8447352,7.16216216 45.6454685,7.2972973 45.9443685,7.2972973 C46.0440018,7.7027027 45.7451018,7.97297297 45.6454685,7.97297297 L46.3429018,8.24324324 C46.3429018,7.2972973 46.9407017,7.43243243 46.9407017,6.62162162 L46.1436351,7.56756757 C46.1436351,6.62162162 46.6418017,5 47.1399683,5.27027027 C47.2396016,5.67567568 46.9407017,6.89189189 46.9407017,7.16216216 C47.040335,6.89189189 47.4388683,6.62162162 47.4388683,6.89189189 L47.2396016,7.2972973 C47.5385016,7.7027027 47.7377682,6.08108108 48.0366682,7.02702703 C48.1363015,7.16216216 48.3355681,8.24324324 48.3355681,7.7027027 C48.2359348,6.62162162 48.3355681,3.51351351 48.5348348,2.7027027 C48.5348348,2.83783784 49.0330014,3.78378378 49.1326347,4.32432432 C49.232268,5.13513514 48.7341014,6.21621622 48.8337347,6.89189189 C48.8337347,6.62162162 48.933368,6.35135135 49.0330014,6.21621622 C49.1326347,6.48648649 48.933368,7.02702703 49.232268,6.89189189 C49.3319013,5.94594595 49.7304346,7.02702703 49.4315346,6.08108108 C49.7304346,5.94594595 49.7304346,6.48648649 50.0293345,6.48648649 C49.9297012,5.94594595 50.4278678,4.45945946 50.7267678,4.32432432 L50.7267678,5 C51.2249344,5.13513514 51.5238343,5.54054054 51.9223676,5.67567568 C51.9223676,5.94594595 52.1216342,6.21621622 52.0220009,6.62162162 C52.1216342,6.48648649 52.2212675,6.21621622 52.3209009,6.21621622 C52.5201675,7.02702703 52.0220009,6.35135135 52.1216342,7.2972973 C52.2212675,6.75675676 52.5201675,6.62162162 52.8190674,6.35135135 C52.8190674,5.54054054 52.3209009,6.08108108 52.1216342,6.48648649 C52.2212675,5.40540541 52.6198008,4.18918919 53.2176007,3.78378378 C53.616134,3.51351351 53.317234,4.59459459 53.4168674,4.32432432 C54.1143006,4.59459459 54.2139339,2.43243243 54.8117338,3.37837838 C55.0110005,3.78378378 54.7121005,4.45945946 54.7121005,5 C54.4132005,5.27027027 54.2139339,4.45945946 54.0146673,4.45945946 L54.2139339,4.86486486 C54.1143006,5.13513514 53.8154006,5.27027027 53.7157673,5 C53.9150339,5.67567568 55.0110005,5.27027027 55.509167,5.94594595 C55.7084337,5.81081081 55.9077003,5.54054054 55.9077003,5.27027027 L55.7084337,5.27027027 C55.6088004,4.59459459 56.106967,4.45945946 55.9077003,4.18918919 C56.2066003,3.78378378 56.5055002,3.24324324 56.8044002,3.64864865 L56.8044002,4.45945946 C56.8044002,4.18918919 56.6051335,3.91891892 56.5055002,4.18918919 C56.7047669,3.91891892 56.9040335,5.40540541 57.2029335,4.32432432 L57.0036668,3.64864865 C57.3025668,3.24324324 57.7011,2.43243243 58,2.7027027 C57.9003667,1.89189189 57.9003667,2.83783784 57.8007334,1.75675676 C57.9003667,2.97297297 57.0036668,1.62162162 57.2029335,2.83783784 C57.1033001,1.75675676 56.8044002,2.2972973 56.6051335,1.35135135 C56.6051335,1.62162162 56.7047669,1.89189189 56.4058669,1.75675676 C56.4058669,1.89189189 56.3062336,1.89189189 56.3062336,2.02702703 L56.3062336,2.02702703 L56.3062336,2.02702703 L56.3062336,2.02702703 C56.4058669,2.16216216 56.4058669,2.2972973 56.4058669,2.43243243 C56.2066003,2.97297297 55.808067,2.97297297 55.6088004,3.24324324 C55.509167,3.10810811 55.7084337,2.97297297 55.6088004,2.7027027 L55.4095337,3.10810811 C55.4095337,2.56756757 55.1106338,2.02702703 55.509167,1.75675676 L55.2102671,1.62162162 C55.0110005,1.21621622 54.8117338,1.08108108 54.6124672,1.35135135 C54.5128339,1.21621622 54.2139339,2.02702703 54.3135672,1.48648649 L53.7157673,2.02702703 L53.7157673,1.89189189 C53.2176007,1.75675676 52.6198008,2.7027027 52.1216342,1.62162162 C51.9223676,1.75675676 51.7231009,1.89189189 51.5238343,1.75675676 L51.5238343,1.21621622 C51.3245677,1.35135135 50.9260344,0.675675676 50.7267678,1.21621622 C50.5275011,-0.27027027 49.6308013,0.810810811 49.3319013,0.540540541 L49.232268,1.21621622 C48.933368,1.21621622 48.7341014,1.35135135 48.3355681,1.62162162 L48.3355681,2.16216216 C48.0366682,2.56756757 47.6381349,1.62162162 47.1399683,1.62162162 C47.1399683,1.35135135 47.3392349,1.48648649 47.3392349,1.62162162 C46.8410683,0.135135135 46.1436351,2.56756757 45.7451018,1.48648649 C45.6454685,1.75675676 45.5458352,1.62162162 45.4462019,1.48648649 L45.4462019,1.48648649 L45.4462019,1.48648649 C45.4462019,1.35135135 45.3465686,1.21621622 45.2469353,1.21621622 C45.2469353,1.35135135 45.3465686,1.48648649 45.3465686,1.48648649 C45.2469353,1.48648649 45.1473019,1.62162162 44.9480353,1.75675676 L44.9480353,1.08108108 L44.9480353,1.08108108 C44.848402,0.810810811 44.848402,1.35135135 44.848402,1.89189189 C44.848402,1.75675676 44.7487687,1.89189189 44.7487687,2.02702703 C44.6491353,0.945945946 44.3502354,2.2972973 44.2506021,1.21621622 C44.1509688,1.75675676 43.5531688,1.62162162 43.4535355,2.7027027 L43.4535355,2.43243243 C43.2542689,2.2972973 43.1546356,2.16216216 42.9553689,2.43243243 L42.9553689,1.62162162 L42.5568357,2.7027027 C42.357569,2.16216216 42.2579357,1.89189189 42.5568357,1.21621622 C42.0586691,2.16216216 42.1583024,1.62162162 41.6601358,2.56756757 L41.6601358,2.02702703 C41.4608692,2.02702703 41.2616025,2.7027027 41.1619692,2.2972973 C40.9627026,1.35135135 39.5678361,2.16216216 38.7707696,1.21621622 C38.8704029,2.83783784 38.3722363,0.540540541 38.3722363,1.75675676 C38.3722363,1.35135135 38.1729697,1.21621622 38.3722363,0.810810811 C37.973703,1.21621622 37.6748031,0.27027027 37.3759031,1.21621622 C37.3759031,0.810810811 37.4755364,0.675675676 37.4755364,0.405405405 C37.4755364,0.540540541 37.3759031,0.675675676 37.2762698,0.540540541 C37.2762698,0.27027027 37.3759031,0.27027027 37.3759031,0 C36.8777365,0 36.8777365,1.21621622 36.8777365,2.2972973 C36.6784699,1.75675676 36.5788366,1.89189189 36.3795699,2.56756757 C36.2799366,2.16216216 36.1803033,1.89189189 36.4792032,1.75675676 C36.2799366,1.75675676 35.4828701,1.21621622 35.4828701,2.02702703 C35.4828701,1.75675676 35.2836034,2.02702703 35.1839701,2.02702703 C34.7854368,2.02702703 34.7854368,1.89189189 34.4865369,2.02702703 L34.5861702,2.16216216 C34.4865369,3.24324324 34.2872702,2.43243243 33.9883703,2.56756757 L33.9883703,2.43243243 C33.3905704,1.75675676 33.6894703,2.83783784 33.0916704,1.89189189 L33.0916704,2.56756757 C33.0916704,3.91891892 32.4938705,1.75675676 32.1949706,2.2972973 L32.2946039,2.7027027 C32.0953372,3.24324324 31.696804,0.810810811 31.4975373,0.675675676 C31.4975373,0.540540541 31.5971706,0.540540541 31.5971706,0.405405405 C31.0990041,-0.405405405 31.4975373,1.21621622 31.1986374,1.48648649 C31.0990041,1.08108108 31.2982707,0.27027027 30.9993707,0.27027027 C30.8001041,-0.135135135 30.2023042,1.75675676 29.9034042,0.810810811 C30.0030376,1.21621622 30.1026709,1.48648649 29.9034042,1.75675676 C29.6045043,1.89189189 29.1063377,0.405405405 28.9070711,1.62162162 C28.8074377,1.62162162 28.8074377,1.48648649 28.8074377,1.35135135 C28.6081711,1.62162162 28.1100045,1.89189189 28.0103712,2.43243243 C27.7114712,0.27027027 26.715138,3.64864865 26.6155047,1.48648649 L25.9180715,1.62162162 L25.9180715,1.35135135 C25.5195382,1.21621622 25.3202716,1.75675676 25.2206383,2.2972973 C25.121005,2.16216216 25.2206383,2.02702703 25.2206383,1.89189189 C24.6228384,1.48648649 24.523205,1.62162162 24.0250385,2.7027027 L23.9254051,2.02702703 C23.8257718,2.43243243 23.0287053,1.08108108 22.4309054,1.89189189 C22.4309054,1.75675676 22.4309054,1.62162162 22.5305387,1.62162162 C21.9327388,2.43243243 20.8367723,-0.135135135 20.737139,2.43243243 L20.3386057,3.10810811 C20.9364056,3.24324324 20.3386057,4.18918919 20.5378723,4.59459459 C20.3386057,4.72972973 19.9400724,3.91891892 20.139339,3.78378378 L20.2389724,3.91891892 C20.2389724,2.7027027 19.5415391,3.51351351 19.4419058,2.7027027 C18.3459393,2.83783784 17.1503395,2.2972973 16.054373,2.43243243 L16.2536396,3.37837838 L15.8551064,3.37837838 C15.8551064,2.97297297 15.8551064,2.43243243 16.054373,2.43243243 C15.8551064,1.89189189 15.6558397,2.97297297 15.6558397,3.10810811 C15.1576731,2.83783784 15.755473,1.89189189 15.6558397,1.89189189 L15.4565731,2.02702703 L15.5562064,2.16216216 C15.4565731,2.56756757 15.4565731,2.97297297 15.0580398,2.97297297 C14.8587732,2.97297297 14.8587732,2.43243243 14.8587732,2.43243243 C14.8587732,2.2972973 14.8587732,2.2972973 14.7591399,2.43243243 L14.2609733,2.43243243 L14.4602399,3.24324324 C14.2609733,3.64864865 14.0617066,3.24324324 14.2609733,4.05405405 C13.86244,2.7027027 12.4675735,3.78378378 12.2683069,3.37837838 C12.0690403,4.05405405 11.7701403,4.05405405 11.371607,4.05405405 C11.4712403,4.18918919 11.5708737,5 11.2719737,5 C11.1723404,3.24324324 10.6741738,4.32432432 10.2756405,3.10810811 C10.6741738,3.91891892 9.47857398,3.37837838 9.97674057,4.59459459 C9.67784062,4.45945946 9.87710725,3.91891892 9.67784062,3.51351351 C9.08004071,4.32432432 8.28297416,3.37837838 7.58554093,3.64864865 C7.58554093,3.91891892 7.78480757,4.18918919 7.68517425,4.59459459 L7.08737434,3.51351351 C6.98774102,3.64864865 7.08737434,4.86486486 6.78847439,4.18918919 C6.78847439,4.32432432 6.8881077,4.59459459 6.78847439,4.72972973 C5.19434129,3.91891892 3.99874147,6.21621622 2.20534174,4.45945946 C2.5042417,4.86486486 2.30497506,5 2.20534174,5 C2.30497506,5.13513514 2.30497506,5.54054054 2.30497506,5.94594595 L1.60754183,5.13513514 C1.60754183,6.08108108 0.910108606,5.40540541 1.00974192,6.21621622 L1.20900856,6.08108108 C1.00974192,7.02702703 1.80680847,8.10810811 1.90644179,9.45945946 C2.00607511,8.24324324 2.90277497,10.9459459 3.10204161,9.18918919 C3.20167493,9.45945946 3.10204161,9.59459459 3.20167493,9.86486486 C3.30130825,9.32432432 3.40094156,9.18918919 3.69984152,9.45945946 L3.69984152,9.59459459 C4.39727475,9.32432432 4.79580802,9.72972973 5.69250789,10 L5.59287457,9.32432432 C5.69250789,9.32432432 5.7921412,9.45945946 5.89177452,9.59459459 C5.99140784,8.64864865 5.39360793,9.59459459 5.49324125,8.51351351 C5.89177452,9.86486486 6.78847439,8.37837838 7.08737434,9.86486486 C7.3862743,9.86486486 6.8881077,9.18918919 7.18700766,9.05405405 L7.28664098,9.45945946 L7.28664098,8.91891892 C7.48590761,8.91891892 7.58554093,9.45945946 7.68517425,9.72972973 C7.68517425,9.72972973 7.58554093,9.86486486 7.48590761,9.86486486 C7.78480757,10.2702703 8.18334084,9.59459459 8.18334084,9.72972973 L7.98407421,9.59459459 C8.68150743,9.05405405 9.67784062,9.32432432 10.3752738,8.51351351 L10.2756405,8.24324324 C10.7738071,7.56756757 10.7738071,8.51351351 11.371607,8.10810811 L11.371607,8.24324324 C11.4712403,7.97297297 11.5708737,7.7027027 11.7701403,7.7027027 C11.5708737,7.97297297 12.0690403,8.24324324 11.8697736,8.64864865 C12.4675735,7.97297297 12.1686736,8.10810811 12.4675735,6.89189189 L12.5672068,7.43243243 C12.6668402,6.89189189 12.6668402,6.75675676 12.9657401,6.48648649 C12.7664735,6.89189189 13.2646401,7.16216216 12.9657401,7.83783784 C13.6631734,8.78378378 13.86244,6.62162162 14.2609733,8.10810811 C14.4602399,6.62162162 13.6631734,7.43243243 13.7628067,7.16216216 C13.56354,6.75675676 13.9620733,6.08108108 14.1613399,6.21621622 C14.3606066,6.21621622 14.6595065,7.97297297 15.1576731,7.83783784 C15.0580398,7.83783784 15.1576731,7.97297297 15.0580398,7.97297297 C15.2573064,8.24324324 15.3569398,7.43243243 15.6558397,7.97297297 C15.755473,7.16216216 15.9547397,7.97297297 15.9547397,6.89189189 L15.4565731,7.16216216 C15.755473,6.89189189 15.8551064,5.54054054 16.3532729,6.08108108 C16.3532729,6.35135135 16.2536396,6.62162162 16.1540063,6.75675676 C16.3532729,7.02702703 16.3532729,6.48648649 16.5525396,6.75675676 C16.5525396,7.83783784 15.9547397,7.02702703 15.755473,7.97297297 C15.9547397,8.37837838 16.2536396,7.16216216 16.1540063,8.24324324 C16.2536396,6.75675676 16.6521729,8.37837838 16.9510729,7.16216216 L16.9510729,7.83783784 C16.9510729,7.7027027 17.0507062,7.43243243 17.1503395,7.43243243 L17.0507062,8.24324324 C17.2499728,7.43243243 17.6485061,8.78378378 17.8477727,8.37837838 C17.2499728,8.51351351 17.6485061,7.56756757 17.3496061,7.16216216 C18.0470394,6.21621622 17.8477727,8.78378378 18.6448393,8.37837838 C18.8441059,8.78378378 18.4455726,8.37837838 18.6448393,7.97297297 C18.8441059,8.10810811 19.0433725,8.37837838 19.1430059,8.64864865 C19.6411724,8.51351351 19.0433725,7.97297297 19.2426392,7.56756757 C19.4419058,8.37837838 19.4419058,7.16216216 19.7408058,6.89189189 L19.7408058,7.56756757 C20.3386057,7.97297297 19.8404391,6.21621622 20.438239,6.62162162 L20.2389724,7.56756757 L20.5378723,7.2972973 L20.5378723,8.10810811 C20.8367723,7.56756757 20.9364056,7.7027027 21.2353055,7.83783784 C21.1356722,7.43243243 21.2353055,6.62162162 21.4345722,6.62162162 C21.6338388,7.02702703 21.3349389,7.2972973 21.7334721,7.16216216 C21.6338388,7.56756757 21.6338388,8.10810811 21.4345722,7.56756757 C21.4345722,7.83783784 21.3349389,7.97297297 21.3349389,8.24324324 C21.5342055,8.64864865 21.8331055,8.24324324 21.9327388,8.24324324 C21.8331055,8.24324324 21.8331055,8.24324324 21.7334721,8.10810811 L22.2316387,7.16216216 C22.331272,7.43243243 22.2316387,7.56756757 22.2316387,7.83783784 C22.331272,7.7027027 22.4309054,7.43243243 22.5305387,7.43243243 C22.5305387,7.97297297 22.5305387,8.51351351 22.331272,8.78378378 L22.8294386,7.97297297 C22.8294386,8.24324324 23.1283386,8.64864865 23.0287053,8.78378378 C23.3276052,9.05405405 23.7261385,7.7027027 24.1246718,8.10810811 C24.1246718,7.97297297 24.2243051,7.83783784 24.2243051,7.83783784 C24.6228384,7.97297297 24.9217383,8.51351351 25.3202716,7.83783784 L25.6191715,8.78378378 C25.9180715,8.51351351 25.2206383,7.56756757 25.8184382,7.16216216 C26.2169715,6.89189189 26.0177048,7.97297297 26.1173381,8.24324324 C26.3166048,7.7027027 26.6155047,6.75675676 27.014038,7.56756757 C26.9144047,7.56756757 26.8147714,7.43243243 26.715138,7.56756757 Z M30.8001041,6.89189189 C30.7004708,7.02702703 30.6008375,7.43243243 30.5012041,7.02702703 C30.6008375,6.35135135 30.6008375,6.75675676 30.8001041,6.89189189 Z M37.0770032,5.27027027 C36.9773698,5.54054054 36.8777365,5.40540541 36.7781032,5.13513514 C36.8777365,5.13513514 36.9773698,5.13513514 37.0770032,5.27027027 Z M54.9113671,2.16216216 L54.9113671,2.16216216 C54.7121005,1.89189189 54.8117338,2.02702703 54.9113671,2.16216216 Z M55.2102671,2.43243243 L55.2102671,2.16216216 C55.2102671,2.2972973 55.1106338,2.2972973 55.0110005,2.2972973 C55.1106338,2.56756757 55.1106338,2.56756757 55.2102671,2.43243243 Z M14.7591399,2.7027027 L14.8587732,2.83783784 C14.7591399,3.10810811 14.7591399,2.83783784 14.7591399,2.7027027 Z" id="Shape"></path>
                    <path d="M36,6.495 L36,6 L36,6.495 Z" id="Shape"></path>
                    <path d="M48.2828427,7.495 C48.0828427,7.33 48.0828427,7.165 48.0828427,7 C47.8828427,7.33 48.0828427,7.495 48.2828427,7.495 Z" id="Shape"></path>
                    <path d="M56.5,2 L56,2.165 C56.1666667,2.165 56.1666667,2.33 56.3333333,2.495 C56.5,2.165 56.3333333,2 56.5,2 Z" id="Shape"></path>
                    <path d="M58.0828427,6.495 C58.0828427,6.33 58.2828427,6.495 58.2828427,6.33 L58.2828427,6 C58.0828427,6 57.8828427,6.33 58.0828427,6.495 Z" id="Shape"></path>
                    <path d="M57,4.2247454 C57,4.6742362 57.1530931,4.5618635 57.4592793,4.4494908 L57.4592793,4.4494908 C57.6123724,3.7752546 57.3061862,4 57,4.2247454 Z" id="Shape"></path>
                    <path d="M57,5.14666667 L57.4,5.14666667 C57.4,4.81666667 57.2,5.14666667 57,5.14666667 Z" id="Shape"></path>
                    <path d="M54.2395249,2.51849538 C54.4299807,2.63589494 54.4299807,1.93149759 54.4299807,2.16629671 C54.8108924,1.57929891 53.4777017,2.7532945 54.2395249,2.51849538 Z" id="Shape"></path>
                    <polygon id="Shape" points="56.2 6.55 56.2 6 56 6.44"></polygon>
                    <path d="M55,6.07333333 L55.3333333,6.40333333 C55.3333333,6.23833333 55.3333333,6.23833333 55.5,6.07333333 C55.1666667,6.07333333 55,5.90833333 55,6.07333333 Z" id="Shape"></path>
                    <path d="M55,6.165 C55.2,6.165 55.4,6.165 55.4,6 C55.4,6.165 55.2,6.165 55,6.165 Z" id="Shape"></path>
                    <polygon id="Shape" points="55.5 6.165 55.3333333 6 55 6"></polygon>
                    <path d="M52.5,5 L52,5.16213166 C52,5.48639497 52,5.64852662 52.1666667,5.48639497 C52.3333333,5.32426331 52.5,5.32426331 52.5,5 Z" id="Shape"></path>
                    <path d="M53.4,6.36666667 C53.2,6.275 53.2,6.18333333 53.2,6 L53,6.55 L53.4,6.36666667 Z" id="Shape"></path>
                    <path d="M52.3938558,7 C52.3938558,7.26199023 51.6218984,7.65497558 52.2394644,7.52398046 C52.2394644,7.39298535 52.7026388,7.26199023 52.3938558,7 Z" id="Shape"></path>
                    <polygon id="Shape" points="48 6 48 6 48.2 4"></polygon>
                    <path d="M43,8.85586423 C43.7130791,9.55181331 43.237693,7.46396606 43.9507722,8.15991514 C44.1884652,7.69594908 43.4753861,7.46396606 43.7130791,7 C43.237693,7.46396606 43,7.23198303 43,8.85586423 Z" id="Shape"></path>
                    <path d="M44,7.165 L44.2,7 C44.2,7 44,7.165 44,7.165 Z" id="Shape"></path>
                    <polygon id="Shape" points="1.5 5.33 1 5 1.33333333 5.495"></polygon>
                    <path d="M0.4,6.55 L0,6 L0,6.55 C1.11022302e-16,6.45833333 0.2,6.36666667 0.4,6.55 Z" id="Shape"></path>
                    <path d="M31.4,9.55 L31.4,9.275 C31.4,9 31.2,9 31,9 L31.4,9.55 Z" id="Shape"></path>
                    <polygon id="Shape" points="28 8.55 28.2 8.55 28 8"></polygon>
                    <path d="M26.0407207,9.55 C26.1938138,9.55 26.3469069,9.39695908 26.5,9.39695908 C26.1938138,9.55 25.8876276,8.32567262 26.0407207,9.55 Z" id="Shape"></path>
                </g>
            </g>
        </g>
    </g>
</svg>