<?xml version="1.0" encoding="UTF-8"?>
<svg width="34px" height="27px" viewBox="0 0 34 27" version="1.1" xmlns="http://www.w3.org/2000/svg" xmlns:xlink="http://www.w3.org/1999/xlink">
    <!-- Generator: Sketch 43.2 (39069) - http://www.bohemiancoding.com/sketch -->
    <title>check</title>
    <desc>Created with Sketch.</desc>
    <defs></defs>
    <g id="Symbols" stroke="none" stroke-width="1" fill="none" fill-rule="evenodd">
        <g id="checkbox/on" transform="translate(-14.000000, -17.000000)" fill="#FFFFFF">
            <g id="check" transform="translate(14.000000, 17.000000)">
                <path d="M1.48959236,13.4895924 C2.46590309,12.5132816 4.04607858,12.5105447 5.03107201,13.4955381 L13.5044619,21.968928 C14.4840564,22.9485225 14.493525,24.5272903 13.5104076,25.5104076 C12.5340969,26.4867184 10.9539214,26.4894553 9.96892799,25.5044619 L1.4955381,17.031072 C0.515943629,16.0514775 0.506474972,14.4727097 1.48959236,13.4895924 Z" id="Rectangle-3"></path>
                <path d="M32.5367219,0.640147572 C33.5787584,1.54597606 33.6907578,3.1232139 32.7784612,4.17269101 L14.4185825,25.2933154 C13.510055,26.3384568 11.9360753,26.4577075 10.886774,25.5455637 C9.84473747,24.6397352 9.73273809,23.0624974 10.6450346,22.0130203 L29.0049133,0.892395866 C29.9134409,-0.152745511 31.4874205,-0.271996189 32.5367219,0.640147572 Z" id="Rectangle-3"></path>
            </g>
        </g>
    </g>
</svg>