<?xml version="1.0" encoding="UTF-8"?>
<svg width="24px" height="33px" viewBox="0 0 24 33" version="1.1" xmlns="http://www.w3.org/2000/svg" xmlns:xlink="http://www.w3.org/1999/xlink">
    <!-- Generator: Sketch 43.2 (39069) - http://www.bohemiancoding.com/sketch -->
    <title>lock</title>
    <desc>Created with Sketch.</desc>
    <defs></defs>
    <g id="Desktop" stroke="none" stroke-width="1" fill="none" fill-rule="evenodd" fill-opacity="0.5">
        <g id="storages-picker-auth-id" transform="translate(-672.000000, -396.000000)" fill-rule="nonzero" fill="#FFFFFF">
            <g id="content" transform="translate(0.000000, -177.000000)">
                <g id="note" transform="translate(370.000000, 541.000000)">
                    <path d="M315.051651,54.4258538 L315.051651,58.7281964 L312.943268,58.7281964 L312.943268,54.4231787 C312.224192,54.0433853 311.734124,53.2880683 311.734124,52.4182896 C311.734124,51.1668806 312.748591,50.1524132 314,50.1524132 C315.251409,50.1524132 316.265876,51.1668806 316.265876,52.4182896 C316.265876,53.2901152 315.773498,54.0469396 315.051651,54.4258538 Z M314,42.5266723 C308.537011,42.5266723 304.108383,46.9553002 304.108383,52.4182896 C304.108383,57.881279 308.537011,62.3099069 314,62.3099069 C319.462989,62.3099069 323.891617,57.881279 323.891617,52.4182896 C323.886017,46.9576218 319.460668,42.532273 314,42.5266723 L314,42.5266723 Z M306.978831,42.6856472 L306.978831,37.5427604 C306.978831,34.4944962 310.113463,32 313.974598,32 C317.835732,32 320.970364,34.4944962 320.970364,37.5427604 L320.970364,42.6491332 C324.015265,44.8255804 326,48.3901552 326,52.4182896 C325.994397,59.0433845 320.625095,64.412687 314,64.4182896 C307.372583,64.4182896 302,59.0457066 302,52.4182896 C302,48.412602 303.962676,44.8653221 306.978831,42.6856472 Z M309.087214,41.4667685 C310.586696,40.7930716 312.249581,40.4182896 314,40.4182896 C315.728703,40.4182896 317.372029,40.7838299 318.856901,41.4418322 L318.856901,37.5427604 C318.856901,35.6528366 316.662151,34.1083827 313.969517,34.1083827 C311.276884,34.1083827 309.087214,35.6325148 309.087214,37.5427604 L309.087214,41.4667685 Z" id="lock"></path>
                </g>
            </g>
        </g>
    </g>
</svg>